<?xml version="1.0" encoding="UTF-8"?>
<!DOCTYPE svg PUBLIC "-//W3C//DTD SVG 1.1//EN" "http://www.w3.org/Graphics/SVG/1.1/DTD/svg11.dtd">
<!-- Creator: CorelDRAW -->
<svg xmlns="http://www.w3.org/2000/svg" xml:space="preserve" width="62.9921in" height="23.622in" version="1.1" style="shape-rendering:geometricPrecision; text-rendering:geometricPrecision; image-rendering:optimizeQuality; fill-rule:evenodd; clip-rule:evenodd"
viewBox="0 0 62992.13 23622.05"
 xmlns:xlink="http://www.w3.org/1999/xlink"
 xmlns:xodm="http://www.corel.com/coreldraw/odm/2003">
 <defs>
  <style type="text/css">
   <![CDATA[
    .str3 {stroke:#FEFEFE;stroke-width:118.11;stroke-miterlimit:22.9256}
    .str1 {stroke:#FEFEFE;stroke-width:98.43;stroke-miterlimit:22.9256}
    .str0 {stroke:#F58634;stroke-width:98.43;stroke-miterlimit:22.9256}
    .str2 {stroke:#FEFEFE;stroke-width:98.43;stroke-linecap:round;stroke-linejoin:round;stroke-miterlimit:22.9256}
    .fil3 {fill:#FEFEFE}
    .fil8 {fill:#BDBFC1}
    .fil9 {fill:#373435}
    .fil0 {fill:#F58634}
    .fil4 {fill:url(#id0)}
    .fil7 {fill:url(#id1)}
    .fil5 {fill:url(#id2)}
    .fil1 {fill:url(#id3)}
    .fil2 {fill:url(#id4)}
    .fil6 {fill:url(#id5)}
   ]]>
  </style>
  <linearGradient id="id0" gradientUnits="userSpaceOnUse" x1="29446.9" y1="7984.38" x2="35153.62" y2="7984.38">
   <stop offset="0" style="stop-opacity:1; stop-color:#C03D38"/>
   <stop offset="1" style="stop-opacity:1; stop-color:#D47D39"/>
  </linearGradient>
  <linearGradient id="id1" gradientUnits="userSpaceOnUse" x1="30471.61" y1="3062.35" x2="30471.61" y2="6612.51">
   <stop offset="0" style="stop-opacity:1; stop-color:#555659"/>
   <stop offset="1" style="stop-opacity:1; stop-color:#5F6161"/>
  </linearGradient>
  <linearGradient id="id2" gradientUnits="userSpaceOnUse" x1="28757.28" y1="9607.57" x2="28757.28" y2="13006.12">
   <stop offset="0" style="stop-opacity:1; stop-color:#3A4967"/>
   <stop offset="1" style="stop-opacity:1; stop-color:#7A9AAD"/>
  </linearGradient>
  <linearGradient id="id3" gradientUnits="userSpaceOnUse" x1="29940.49" y1="3062.35" x2="29940.49" y2="13964.33">
   <stop offset="0" style="stop-opacity:1; stop-color:#5D6061"/>
   <stop offset="1" style="stop-opacity:1; stop-color:#CBD9DB"/>
  </linearGradient>
  <linearGradient id="id4" gradientUnits="userSpaceOnUse" x1="33201.43" y1="8256.88" x2="35391.48" y2="8256.88">
   <stop offset="0" style="stop-opacity:1; stop-color:#DA884A"/>
   <stop offset="1" style="stop-opacity:1; stop-color:#D99E38"/>
  </linearGradient>
  <linearGradient id="id5" gradientUnits="userSpaceOnUse" x1="29388.3" y1="13006.11" x2="29388.3" y2="3536.61">
   <stop offset="0" style="stop-opacity:1; stop-color:#536B3E"/>
   <stop offset="1" style="stop-opacity:1; stop-color:#A8CC45"/>
  </linearGradient>
 </defs>
 <g id="Layer_x0020_1">
  <metadata id="CorelCorpID_0Corel-Layer"/>
  <g id="_2670148016912">
   <g>
    <path class="fil0" d="M29940.48 917.61c4195.02,0 7595.75,3400.73 7595.75,7595.75 0,4195.02 -3400.73,7595.74 -7595.75,7595.74 -4195.02,0 -7595.74,-3400.73 -7595.74,-7595.74 0,-4195.02 3400.73,-7595.75 7595.74,-7595.75z"/>
   </g>
   <circle class="fil0" cx="29940.48" cy="8513.35" r="7184.97"/>
   <circle class="fil0 str0" cx="29940.48" cy="8513.35" r="5781.73"/>
   <circle class="fil1 str1" cx="29940.48" cy="8513.35" r="5451"/>
   <path class="fil2 str2" d="M34968.06 6404.06c272.63,648.86 423.43,1361.49 423.43,2109.3 0,555.45 -83.37,1091.42 -237.87,1596.36l-943.48 -1914.32 -1008.7 0 1766.62 -1791.33z"/>
   <polygon class="fil3" points="34722.57,9235.13 34642.27,9072.19 35149,9072.19 35149,9235.13 "/>
   <path class="fil4 str2" d="M33229.06 4166.41c760.1,575.99 1364.53,1346.6 1739,2237.65l-1766.62 1791.33 1008.7 0 943.48 1914.32c-189.18,618.04 -485.15,1189.44 -866.55,1692.65l-1046.84 -1853.37 -1505.29 0 -1117.33 -1994.58 -1170.71 0 1395.72 -1341.89 2386.44 -2446.09z"/>
   <path class="fil5 str1" d="M26853.88 13006.12c-862.24,-593.67 -1545.26,-1428.92 -1951.06,-2408.19l818.7 -990.36 3802.03 0 977.67 1676 1303.56 0 806.96 1722.55 -5757.85 0z"/>
   <path class="fil6 str2" d="M34287.11 11802.3c-337.04,444.69 -740.58,836.19 -1196.01,1159.43l-479.36 44.39 -806.96 -1722.55 -1303.56 0 -977.67 -1676 -3802.03 0 -818.7 990.36c-266.14,-642.26 -413.34,-1346.21 -413.34,-2084.58 0,-674.78 122.69,-1320.94 346.97,-1917.43 2848.91,-2992.22 33.9,-44.78 2877.7,-3059.31l3128.47 3075.89 -1395.72 1341.89 1170.71 0 1117.33 1994.58 1505.29 0 1046.88 1853.32z"/>
   <path class="fil7 str2" d="M29940.48 3062.35c1235.2,0 2374.38,411.3 3288.57,1104.06l-2386.44 2446.09 -3128.47 -3075.89c679.82,-304.66 1433.28,-474.27 2226.33,-474.27z"/>
   <polygon class="fil3" points="29360.61,4137.31 30074.46,4137.31 30074.46,5857.25 29360.61,5155.4 "/>
   <g>
    <polygon class="fil8" points="29457.6,4234.3 29457.6,5114.75 29977.47,5625.87 29977.47,4234.3 "/>
   </g>
   <rect class="fil3" x="26981.44" y="5681.4" width="1458.74" height="496.59"/>
   <rect class="fil3" x="27819.44" y="6333.17" width="620.74" height="1132.85"/>
   <rect class="fil3" x="26981.44" y="6333.17" width="620.74" height="1132.85"/>
   <circle class="fil3" cx="32153.94" cy="6620.27" r="271.57"/>
   <polygon class="fil3" points="31213.34,9017.87 31082.95,8785.09 31874.6,8785.09 31874.6,9017.87 "/>
   <circle class="fil9 str3" cx="29795.13" cy="13176.83" r="768.17"/>
   <g>
    <path class="fil0" d="M40962.58 9974.71l0 3996.61 -2688.31 0 0 -10915.95 9300.39 0c1223.31,0 2801.69,120.72 3844.69,801.04 982.91,641.12 1330.26,1679.72 1330.26,2805.36 0,1081 -324.83,2105.3 -1325.06,2662.31 -1027.59,572.25 -2665.34,650.63 -3831.46,650.63l-6630.5 0zm0 -2210.02l7017.24 0c399.47,0 1452.72,-18.96 1786.69,-211.08 261.17,-150.23 294.77,-631.9 294.77,-891.83 0,-349.28 -51.43,-854.08 -356.89,-1085.85 -360.13,-273.26 -1154.28,-310.53 -1595.64,-310.53l-7146.17 0 0 2499.29z"/>
   </g>
   <path class="fil0" d="M40551.81 8175.46l7428.02 0c506.81,0 1567.87,-21.92 1991.51,-265.79 441.67,-253.89 500.72,-866.78 500.72,-1247.9 0,-448.6 -75.37,-1076.18 -519.37,-1413.08 -442.34,-335.61 -1254.27,-394.06 -1843.93,-394.06l-7556.94 0 0 3320.83zm0 1388.48l0 3996.61 -1866.77 0 0 -10094.41 8889.62 0c1190.19,0 2679.49,120.67 3620.28,734.31 922.2,601.52 1143.9,1585.34 1143.9,2461.31 0,809.93 -189.17,1788.32 -1114.13,2303.43 -934.68,520.5 -2514.26,598.73 -3631.61,598.73l-7041.27 0z"/>
   <g>
    <polygon class="fil0" points="15847.81,5258.39 15847.81,13978.3 13159.49,13978.3 13159.49,5258.39 6952.9,5258.39 6952.9,3048.36 22091.23,3048.36 22091.23,5258.39 "/>
   </g>
   <polygon class="fil0" points="15437.04,4847.61 15437.04,13567.52 13570.26,13567.52 13570.26,4847.61 7363.67,4847.61 7363.67,3459.13 21680.46,3459.13 21680.46,4847.61 "/>
   <g>
    <path class="fil3" d="M47171.41 18224.14c89.15,-225.78 224.31,-427.54 416.05,-591.23 308.69,-263.54 691.24,-365.02 1091.13,-365.02l1043.2 0c176.47,0 354.35,23.28 518.21,85.56l208.31 -1150.28 973.96 0 -775.88 4320.49 -974.54 0 10.62 -58.99c-142.38,38.82 -289.15,58.99 -439.25,58.99l-1043.21 0c-648.09,0 -1154.39,-264.46 -1239.01,-895.68l-159.35 884.89 -973.96 0 357.53 -2001.64 0.59 -2.76c5.95,-27.96 9.98,-57.29 9.98,-85.92 0,-55.44 -10.45,-109.66 -52.1,-149.09 -90.68,-85.85 -301.69,-94.28 -422.45,-94.28l-397.91 0c-183.51,0 -401.53,24.86 -557.61,128.91 -127.29,84.86 -185.45,218.77 -211.97,365.09l-333.44 1839.68 -974.08 0 352.2 -1956.48 0.3 -1.5c6.12,-30.85 10.62,-63.18 10.62,-94.69 0,-78.55 -15.36,-142.71 -81.41,-190.24 -102.88,-74.04 -253.82,-90.78 -377,-90.78l-419.42 0c-201.87,0 -405.9,39.41 -567.11,168.06 -96.83,77.28 -163.92,169.74 -186.25,293.19l-338.76 1872.43 -974.28 0 582.72 -3234.27 986.58 0 -13.2 71.63c161.87,-50.24 332.34,-71.63 504.94,-71.63l526.93 0c340.99,0 715.46,62.03 967.34,307.46 299.14,-234 681.76,-307.46 1054.44,-307.46l602.23 0c337.44,0 676.65,72.59 942.37,292.13 207.21,171.2 325.65,394.78 351.93,653.39zm-33459.67 -1639.29l-1304.66 0 113.2 -509.47c-5.51,-97.46 5.64,-194.43 32.02,-288.66 105.8,-377.83 441.78,-674.05 753.95,-889.3 511.49,-352.69 1124.91,-475.17 1737.53,-475.17l2421.58 0c520.73,0 1124.65,78.22 1536.42,425.02 386.38,325.43 526.91,789.6 526.91,1281.16 0,104.16 0,208.33 0,312.49l0 32.86 -7.36 32c-14.94,64.96 -30.5,130.12 -41.45,195.89l-0.43 2.43 -690.34 3808.8 -1388.71 0 22.2 -126.89c-208.19,84.49 -429.12,126.89 -660.28,126.89l-3124.61 0c-455.95,0 -978.85,-58.07 -1371.27,-307.28 -384.04,-243.89 -546.94,-630.64 -546.94,-1075.28 0,-122.14 14.16,-243.96 38.01,-363.66l111.39 -668.5 0.28 -1.52c84.57,-456.39 306.91,-839.29 687.87,-1110.05 340.44,-241.96 743.67,-358.89 1154.7,-401.73zm4376.97 107.29l36.19 -189.33c0,-72.72 0,-145.43 0,-218.15 0,-160.22 -33.16,-320.18 -158.46,-430.19 -176.69,-155.13 -487.59,-184.69 -713.11,-184.69l-2131.43 0c-344.47,0 -791.76,47.56 -1059.94,285.93l-2.05 1.82 -2.11 1.75c-60.94,50.77 -111.3,148.39 -143.56,223.5l-87 391.95c95.62,-6.83 191.39,-9.93 286.61,-9.93l3225 0c244.47,0 517.78,25.5 749.84,127.34zm2957.63 2116.61c0,58.82 0,117.64 0,176.46 0,91.85 29.18,146.31 107.65,194.47 159.81,98.07 598.69,107.99 788.14,107.99l2839.99 0c405.36,0 991.7,-52.59 1080.89,-543.89l39.9 -219.8c0,-21.08 0,-42.16 0,-63.24 0,-22.33 0,-44.66 0,-66.99 0,-77.7 -16.72,-151.02 -74.32,-206.33 -121.93,-117.07 -389.17,-129.59 -551.7,-129.59l-3213.87 0c-457.86,0 -986.78,-55.49 -1384.25,-299.27 -393.12,-241.1 -556.35,-634.03 -556.35,-1083.3 0,-127.62 15.07,-255.04 37.16,-380.59l33.88 -225.63 0.48 -2.59c90,-494.91 356.04,-888.61 764.56,-1178.15 510.26,-361.65 1123.98,-488.4 1740.57,-488.4l2611.28 0c606.75,0 1383.45,62.31 1900.34,405.1 357.19,236.89 553.53,579.88 553.53,1010.99 0,78.12 0,156.24 0,234.37l0 26 -116.5 642.4 -1413.44 0 130.69 -697.01c11.7,-68.48 -2.98,-106.43 -56.57,-151.03 -239.14,-199.03 -803.46,-223.27 -1104.1,-223.27l-2778.67 0c-389.04,0 -822.46,65.92 -903.09,515.72l-29.81 198.82c0,52.35 0,104.69 0,157.04 0,58.31 12.74,111.54 53.47,154.85 118.37,125.85 421.76,136.42 583.74,136.42l3213.87 0c92.06,0 184.16,2.5 276.06,8.06 875.26,53.02 1686.81,397.99 1686.81,1408.04 0,126.7 -13.75,253.08 -38.49,377.29l-44.28 243.54c-90.15,495.84 -356.2,891.16 -761.5,1186.25 -513.81,374.09 -1140.33,501.75 -1765.85,501.75l-3057.63 0c-506.06,0 -1127.5,-63.72 -1538.99,-384.54 -318.8,-248.55 -457.35,-600.21 -457.35,-998.08 0,-115.27 14.27,-230.17 38.32,-342.8l106.24 -638.02 1418.47 0 -159.31 636.98zm6786.21 1704.13l1097.33 -6090.64 1390.8 0 -1097.34 6090.64 -1390.79 0zm2728.55 -2372.39l145.22 -915.52 101.32 -495.61c132.55,-648.33 404.65,-1256.04 925.7,-1683.56 565.17,-463.7 1274.06,-623.57 1991.07,-623.57l2321.13 0c443.25,0 905.86,73.56 1286.38,312.45l57.84 -312.45 1389.37 0 -1155.12 6435.34c-110.24,582.94 -378.9,1088.31 -857.68,1449.5 -592.04,446.64 -1368.96,571.59 -2093.4,571.59l-2231.81 0c-526.54,0 -1086.72,-85.91 -1532.88,-383.36 -399.73,-266.49 -630.9,-647.15 -630.9,-1133.18 0,-81.83 0,-163.67 0,-245.5l0 -288.98 1582.37 0 -122.35 368.01c-0.76,10.59 -0.44,22.48 -0.44,32.56 0,114.73 80.05,191.44 169.15,251.96 189.23,128.53 512.93,150.95 735.89,150.95l2097.96 0c366.35,0 767.83,-56.94 1079.35,-262.75 200.67,-132.57 379.24,-309.12 421.28,-555.39l96.68 -566.38c-387.81,187.96 -810.07,266.27 -1240.23,266.27l-2298.8 0c-1215.58,0 -2286.5,-430.97 -2286.5,-1817.83 0,-63.24 0,-126.46 0,-189.7 0,-121.2 24.46,-246.35 49.38,-364.86zm7850.7 2372.39l259.99 -1448.38 1457.63 0 -260 1448.38 -1457.62 0zm-25288.52 -1756.45c0,57.66 0,115.33 0,172.99 0,91.76 19.06,161.04 100.47,210.28 153.35,92.76 514.51,103.32 692.98,103.32l2722.81 0c253.24,0 584.5,-30.93 795.1,-184.43 185.68,-135.34 266.31,-361.48 303.83,-579.7l3.7 -21.52 6.86 -20.72c5.7,-17.21 7.65,-35.96 7.65,-54.01 0,-37.2 0,-74.39 0,-111.59 0,-113.33 -25.09,-222 -110.73,-301.42 -150.66,-139.71 -447.34,-157.29 -641.84,-157.29l-2735.89 0c-218.74,0 -650.93,14.97 -834.38,139.71 -143.31,97.44 -207.15,263.76 -237.39,428l-73.17 376.38zm23852.41 -1943.71c9.58,-85.84 19.56,-173.9 19.56,-260.22 0,-249.98 -65.64,-473.16 -258.39,-641.79 -231.65,-202.67 -630.11,-240.93 -925.62,-240.93l-1830.13 0c-411.89,0 -954.87,48.15 -1297.97,296.57 -305.36,221.1 -447.84,580.01 -515.6,938.92l-211.42 1201.49c-18.88,113.26 -29.48,227.92 -29.48,342.79 0,200.99 50.1,388.06 199.44,529.54 263.84,249.93 758.28,286.24 1107.34,286.24l1830.13 0c409.02,0 831.75,-78.85 1157.02,-342.71 294.69,-239.06 466.56,-550.57 545.62,-918.87l209.5 -1191.05zm13056.73 1745.99c3.7,-32.32 7.97,-66.16 7.97,-98.49 0,-81.02 -16.51,-152.61 -79.22,-207.72 -81.87,-71.94 -248.54,-84.02 -352.33,-84.02l-860.33 0c-164.21,0 -387.06,20.02 -522.49,122 -115.76,87.16 -168.67,220.91 -193.08,359.7l-101.37 576.37c-7.02,46.91 -12.52,94.92 -12.52,142.38 0,55.84 10.43,110.8 52.53,150.43 90.3,85 299.8,92.94 416.66,92.94l860.34 0c162.16,0 344.25,-26.48 473.98,-131.69 114.44,-92.81 179.26,-212.6 210.22,-355.19l99.64 -566.7z"/>
   </g>
   <path class="fil9" d="M18210.64 16965.84l85.43 -446.81c0,-78.12 0,-156.24 0,-234.36 0,-211.38 -51.49,-415.11 -216.69,-558.81 -212.92,-188.29 -553.92,-227.23 -826.04,-227.23l-2131.43 0c-389.6,0 -868.46,57.91 -1173.65,329.16 -88.61,73.82 -153.65,196.83 -197.72,302.7l-62.86 283.2 -1067.24 0 72.35 -325.62c-40.42,-453.65 372.87,-817.57 710.63,-1049.75 481.81,-332.93 1063.48,-444.93 1640.37,-444.93l2421.58 0c474.68,0 1048.98,67.11 1426.16,384.78 346.12,291.51 466.02,709.52 466.02,1150.25 0,104.17 0,208.33 0,312.49l0 13.43 -3 13.08c-15.56,67.34 -31.99,137.09 -43.48,206.15l-664.85 3668.16 -1042.09 0 47.25 -270.07c-15.2,10.25 -30.52,20.03 -45.89,29.29 -257.46,160.89 -539.48,240.78 -843.13,240.78l-3124.61 0c-418.89,0 -917.66,-50.84 -1279.52,-280.61 -332.99,-211.5 -467.55,-543.9 -467.55,-930.8 0,-112.59 13.49,-224.41 35.23,-332.81l111.58 -669.69c76.71,-413.99 274.6,-758.3 618.73,-1001.73 420.47,-300 951.18,-390.13 1457.67,-390.13l3225 0c286.86,0 644.24,36.65 871.76,229.89zm-5258.51 1774.11c0,63.15 0,126.31 0,189.47 0,153.59 49.13,275.72 183.05,356.73 190.06,114.94 565.88,128.02 781.56,128.02l2722.81 0c293.46,0 651.43,-39.06 895.92,-217.28 224.05,-163.31 326.5,-423.78 371.69,-689.01l1.53 -8.89 2.83 -8.55c11.6,-34.76 16.32,-71.23 16.32,-107.81 0,-37.17 0,-74.41 0,-111.59 0,-535.83 -475.8,-629.86 -923.73,-629.86l-2735.89 0c-259.35,0 -708.04,17.97 -930.62,169.32 -183.11,124.49 -270.36,326.15 -309.48,538.54l-76 390.9zm7923.06 47.72c0,65.87 0,131.67 0,197.54 0,151.59 59.92,260.99 189.3,340.35 199.07,122.19 650.77,133.27 877.65,133.27l2839.99 0c505.79,0 1139.65,-94.44 1249.3,-684.48l42.65 -234.95c0,-26.22 0,-52.44 0,-78.65 0,-22.33 0,-44.66 0,-66.99 0,-445.69 -437.21,-507.07 -797.18,-507.07l-3213.87 0c-421.48,0 -927.43,-48.79 -1294.77,-274.02 -340.53,-208.91 -474.68,-546.85 -474.68,-937.4 0,-118.47 14.61,-237.96 34.94,-353.02l33.81 -225.17c81.89,-450.34 322.62,-805.19 695.14,-1069.13 480.51,-340.65 1061.47,-456.88 1641.61,-456.88l2611.28 0c564.23,0 1322.41,54.38 1805.74,376.58 310.6,204.31 476.97,495.24 476.97,868.35 0,78.12 0,156.24 0,234.37l0 10.61 -88.25 486.63 -1064.3 0 92.91 -495.54c22.56,-129.79 -14.49,-228.65 -115.53,-312.9 -281.49,-234.13 -866.4,-262.88 -1213.59,-262.88l-2778.67 0c-487.75,0 -976.4,117.18 -1072.02,659.2l-32.05 213.74c0,56.62 0,113.18 0,169.79 0,422.01 486.11,462.43 808.37,462.43l3213.87 0c851.14,0 1791.72,221.52 1791.72,1244.94 0,116.47 -12.84,232.06 -35.46,345.24l-44.54 244.97c-82.19,451.88 -323.74,808.67 -693.85,1078.5 -483.75,351.84 -1076.84,468.96 -1665.11,468.96l-3057.63 0c-460.59,0 -1057.52,-53.61 -1433.75,-348.36 -276.96,-214.51 -391.43,-517.51 -391.43,-863.11 0,-105.69 13.67,-210.26 35.34,-310.77l83.07 -498.89 1054.22 0 -111.23 444.75zm7162.11 1554.06l1035.67 -5748.33 1042.97 0 -1035.67 5748.33 -1042.96 0zm2692.17 -2170.19l145.29 -916.01 100.57 -491.89c121.95,-609.59 377.29,-1183.66 866.58,-1585.52 533.59,-437.38 1205.75,-584.73 1882.51,-584.73l2321.13 0c430.49,0 888.91,72.35 1250,322.27 54.5,37.76 105.4,82.06 152.83,130.26l83.78 -452.53 1042.38 0 -1118.68 6232.38c-102.51,542.02 -348.9,1009.8 -792.58,1344.67 -560.22,422.48 -1305.91,537.07 -1990.33,537.07l-2231.81 0c-490.34,0 -1021.81,-77.18 -1437.94,-354.61 -352.78,-235.19 -554.68,-563.05 -554.68,-990.77 0,-81.83 0,-163.67 0,-245.5l0 -117.83 1173.94 0 -51.5 154.89c-5.3,17.61 -5.18,56.08 -5.18,74.53 0,175.16 104.46,298.7 244.14,393.55 223.41,151.76 570.12,180.52 832.06,180.52l2097.96 0c401.74,0 832.29,-65.52 1173.7,-291.1 243.32,-160.72 443.1,-374.81 495.65,-669.39l158.72 -929.8c-86.66,62.92 -179.87,116.65 -268.18,162.13 -374.93,189.59 -784.69,267.59 -1202.81,267.59l-2298.8 0c-1129.22,0 -2115.34,-369.28 -2115.34,-1646.67 0,-63.21 0,-126.49 0,-189.7 0,-106.11 24.69,-229.77 46.6,-333.81zm6415.72 -1334.48c10.31,-92.5 21.21,-191.65 21.21,-284.56 0,-300.35 -86.19,-568.77 -316.84,-770.61 -268.54,-234.89 -696.38,-283.26 -1038.32,-283.26l-1830.13 0c-451.41,0 -1020.82,55.79 -1398.35,329.1 -343.3,248.62 -507.43,642.52 -583.61,1046.86l-211.86 1204.05c-20.44,122.66 -31.81,246.56 -31.81,370.93 0,842.24 784.28,986.94 1477.94,986.94l1830.13 0c450.23,0 907.53,-91.08 1264.85,-380.95 326.33,-264.7 518.92,-611.35 605.82,-1019.05l210.97 -1199.45zm1471.23 3504.67l198.54 -1106.06 1109.84 0 -198.55 1106.06 -1109.83 0zm3377.09 -2700.13c219.28,-139.33 473.09,-191.83 732.67,-191.83l526.93 0c311.07,0 676.29,54.5 890.68,304.59l11.31 13.26 7.07 16.02c10.31,23.51 20.8,46.9 31.46,70.28 32.64,-41.59 68.52,-80.24 107.87,-113.35 270.66,-224.82 630.51,-290.81 973.39,-290.81l602.23 0c296.05,0 599.28,60.21 833.35,252.93 196.84,163.31 295.4,378.35 295.4,633.86 0,60.16 -6.48,119.54 -18.15,177.33l-329.16 1827.83 -626.44 0 321.09 -1797.61c8.43,-39.59 13.72,-81.01 13.72,-121.55 0,-364.39 -349.01,-414.53 -645.71,-414.53l-397.91 0c-220,0 -465.49,33 -652.54,157.66 -167.15,111.47 -249.51,283.44 -285.44,476.98l-307.95 1699.04 -626.44 0 315.66 -1753.48c8.31,-41.83 13.91,-85.37 13.91,-128.02 0,-135.57 -40.65,-248.62 -152.59,-329.16 -134.97,-97.15 -314.67,-123.02 -476.98,-123.02l-419.42 0c-242.37,0 -481.04,51.85 -673.87,205.44 -129.49,103.63 -218.87,231.77 -247.91,396.5l-313.31 1731.74 -626.56 0 521.04 -2891.96 637.93 0 -35.35 191.83zm8373.52 -29.1l224.23 -1238.16 626.39 0 -714.41 3978.17 -626.67 0 27.33 -151.88c-4.89,2.3 -9.83,4.54 -14.79,6.71 -204.49,94.68 -420.47,145.17 -645.88,145.17l-1043.21 0c-619.31,0 -1080.32,-248.21 -1080.32,-919.07 0,-33.17 0,-66.28 0,-99.45 0,-54.74 13.14,-120.25 22.98,-171.68l43.24 -292.33 59.8 -293.33c64.22,-317.5 203.67,-602.35 452.88,-813.56 276.43,-237.55 621.67,-324.04 979.99,-324.04l1043.2 0c224.23,0 455.76,40.83 642.52,171.56 0.89,0.65 1.83,1.3 2.71,1.88zm-165.14 970.74c4.48,-39.65 9.66,-83.37 9.66,-123.02 0,-132.03 -36.76,-247.85 -137.39,-336.29 -119.6,-105.11 -312.96,-126.61 -465.31,-126.61l-860.33 0c-205.91,0 -455.59,28.52 -625.44,156.42 -151.83,114.3 -225.88,283.62 -258.69,466.78l-101.75 578.49c-8.43,55.97 -14.73,113.23 -14.73,169.91 0,363.21 343.3,414.53 640.35,414.53l860.34 0c204.2,0 419.18,-38.06 581.79,-169.91 146.34,-118.72 231.65,-273.66 270.41,-455.29l101.1 -575.01z"/>
  </g>
 </g>
</svg>
